<?xml version="1.0" encoding="UTF-8"?>
<!DOCTYPE svg PUBLIC "-//W3C//DTD SVG 1.1//EN" "http://www.w3.org/Graphics/SVG/1.1/DTD/svg11.dtd">
<svg xmlns="http://www.w3.org/2000/svg" version="1.1" width="1000px" height="1000px" style="shape-rendering:geometricPrecision; text-rendering:geometricPrecision; image-rendering:optimizeQuality; fill-rule:evenodd; clip-rule:evenodd" xmlns:xlink="http://www.w3.org/1999/xlink">
<g><path style="opacity:1" fill="#a8affe" d="M -0.5,-0.5 C 332.833,-0.5 666.167,-0.5 999.5,-0.5C 999.5,332.833 999.5,666.167 999.5,999.5C 666.167,999.5 332.833,999.5 -0.5,999.5C -0.5,666.167 -0.5,332.833 -0.5,-0.5 Z"/></g>
<g><path style="opacity:1" fill="#010101" d="M 902.5,485.5 C 902.41,488.152 903.076,490.485 904.5,492.5C 908.938,529.423 896.938,559.59 868.5,583C 860.019,588.24 851.019,592.406 841.5,595.5C 838.848,595.41 836.515,596.076 834.5,597.5C 833.5,597.5 832.5,597.5 831.5,597.5C 823.2,598.371 814.867,598.705 806.5,598.5C 761.682,590.848 735.849,564.515 729,519.5C 728.5,464.168 728.333,408.834 728.5,353.5C 743.079,353.176 757.579,353.51 772,354.5C 772.333,380.833 772.667,407.167 773,433.5C 787.263,419.522 804.43,413.689 824.5,416C 866.081,421.751 892.081,444.918 902.5,485.5 Z"/></g>
<g><path style="opacity:1" fill="#000001" d="M 653.5,661.5 C 653.833,635.825 653.5,610.158 652.5,584.5C 651.893,584.624 651.56,584.957 651.5,585.5C 615.524,606.446 581.524,603.612 549.5,577C 526.881,553.814 517.381,525.981 521,493.5C 527.858,452.643 551.358,427.143 591.5,417C 612.144,413.862 631.477,417.529 649.5,428C 656.307,432.64 662.973,437.473 669.5,442.5C 675.509,436.49 681.175,430.157 686.5,423.5C 690.107,422.511 693.774,422.177 697.5,422.5C 697.5,502.167 697.5,581.833 697.5,661.5C 682.833,661.5 668.167,661.5 653.5,661.5 Z"/></g>
<g><path style="opacity:1" fill="#010101" d="M 152.5,488.5 C 171.348,489.23 190.348,489.897 209.5,490.5C 237.849,495.222 252.849,511.889 254.5,540.5C 253.333,562.471 243.333,578.971 224.5,590C 218.765,592.601 212.765,594.267 206.5,595C 170.502,595.5 134.502,595.667 98.5,595.5C 98.5,580.833 98.5,566.167 98.5,551.5C 133.502,551.667 168.502,551.5 203.5,551C 209.603,547.96 211.769,543.126 210,536.5C 208.068,534.962 205.901,533.795 203.5,533C 183.5,532.667 163.5,532.333 143.5,532C 111.859,523.24 97.0254,502.407 99,469.5C 104.387,444.446 119.554,428.946 144.5,423C 177.498,422.5 210.498,422.333 243.5,422.5C 243.5,437.167 243.5,451.833 243.5,466.5C 212.498,466.333 181.498,466.5 150.5,467C 140.559,472.948 139.892,479.948 148.5,488C 149.793,488.49 151.127,488.657 152.5,488.5 Z"/></g>
<g><path style="opacity:1" fill="#1e202e" d="M 318.5,422.5 C 305.01,423.496 291.344,423.829 277.5,423.5C 277.5,462.833 277.5,502.167 277.5,541.5C 276.501,502.004 276.168,462.337 276.5,422.5C 290.5,422.5 304.5,422.5 318.5,422.5 Z"/></g>
<g><path style="opacity:1" fill="#000001" d="M 318.5,422.5 C 320.329,460.153 321.162,498.153 321,536.5C 325.913,552.375 336.413,557.875 352.5,553C 359.35,549.14 363.517,543.307 365,535.5C 365.5,497.835 365.667,460.168 365.5,422.5C 379.833,422.5 394.167,422.5 408.5,422.5C 408.333,460.168 408.5,497.835 409,535.5C 415.579,554.372 427.745,559.205 445.5,550C 449.145,546.547 451.645,542.38 453,537.5C 453.5,499.168 453.667,460.835 453.5,422.5C 468.167,422.5 482.833,422.5 497.5,422.5C 497.966,464.201 497.466,505.867 496,547.5C 488.833,573.333 472.333,589.833 446.5,597C 424.132,601.949 404.299,597.116 387,582.5C 367.799,597.785 346.299,602.285 322.5,596C 296.768,586.708 281.768,568.542 277.5,541.5C 277.5,502.167 277.5,462.833 277.5,423.5C 291.344,423.829 305.01,423.496 318.5,422.5 Z"/></g>
<g><path style="opacity:1" fill="#a7aefd" d="M 599.5,460.5 C 626.371,458.876 643.871,470.876 652,496.5C 655.56,521.883 646.06,540.383 623.5,552C 602.029,558.288 584.862,552.455 572,534.5C 563.358,516.449 563.358,498.449 572,480.5C 575.26,475.817 579.094,471.651 583.5,468C 588.804,465.178 594.137,462.678 599.5,460.5 Z"/></g>
<g><path style="opacity:1" fill="#a7aefd" d="M 807.5,460.5 C 835.295,458.153 852.795,470.486 860,497.5C 863.256,522.494 853.756,540.66 831.5,552C 801.829,558.751 782.662,547.584 774,518.5C 769.951,490.254 781.118,470.92 807.5,460.5 Z"/></g>
<g><path style="opacity:1" fill="#595d86" d="M 152.5,488.5 C 170.17,488.333 187.836,488.5 205.5,489C 207.058,489.21 208.391,489.71 209.5,490.5C 190.348,489.897 171.348,489.23 152.5,488.5 Z"/></g>
<g><path style="opacity:1" fill="#575a83" d="M 902.5,485.5 C 903.924,487.515 904.59,489.848 904.5,492.5C 903.076,490.485 902.41,488.152 902.5,485.5 Z"/></g>
<g><path style="opacity:1" fill="#555880" d="M 651.5,585.5 C 651.56,584.957 651.893,584.624 652.5,584.5C 653.5,610.158 653.833,635.825 653.5,661.5C 652.833,636.167 652.167,610.833 651.5,585.5 Z"/></g>
<g><path style="opacity:1" fill="#656998" d="M 841.5,595.5 C 839.485,596.924 837.152,597.59 834.5,597.5C 836.515,596.076 838.848,595.41 841.5,595.5 Z"/></g>
<g><path style="opacity:1" fill="#797eb7" d="M 831.5,597.5 C 830.737,598.268 829.737,598.768 828.5,599C 820.988,599.822 813.655,599.655 806.5,598.5C 814.867,598.705 823.2,598.371 831.5,597.5 Z"/></g>
</svg>
